<svg xmlns="http://www.w3.org/2000/svg" viewBox="0 0 360 504" width="360" height="504">
<defs><linearGradient id="g" x1="0" y1="0" x2="1" y2="1"><stop offset="0" stop-color="#0d0221"/><stop offset="1" stop-color="#3b0f70"/></linearGradient>
<clipPath id="c"><rect x="14" y="14" width="332" height="476" rx="16"/></clipPath></defs>
<rect width="360" height="504" rx="24" fill="#10151f"/>
<rect x="6" y="6" width="348" height="492" rx="20" fill="url(#g)"/>
<g clip-path="url(#c)"><line x1="0" y1="330" x2="360" y2="330" stroke="#00f0ff" stroke-width="1.2" opacity=".35"/><line x1="0" y1="352" x2="360" y2="352" stroke="#00f0ff" stroke-width="1.2" opacity=".35"/><line x1="0" y1="374" x2="360" y2="374" stroke="#00f0ff" stroke-width="1.2" opacity=".35"/><line x1="0" y1="396" x2="360" y2="396" stroke="#00f0ff" stroke-width="1.2" opacity=".35"/><line x1="0" y1="418" x2="360" y2="418" stroke="#00f0ff" stroke-width="1.2" opacity=".35"/><line x1="0" y1="440" x2="360" y2="440" stroke="#00f0ff" stroke-width="1.2" opacity=".35"/><line x1="0" y1="462" x2="360" y2="462" stroke="#00f0ff" stroke-width="1.2" opacity=".35"/><line x1="0" y1="484" x2="360" y2="484" stroke="#00f0ff" stroke-width="1.2" opacity=".35"/><line x1="180" y1="300" x2="-300" y2="504" stroke="#ff2bd6" stroke-width="1.2" opacity=".45"/><line x1="180" y1="300" x2="-250" y2="504" stroke="#ff2bd6" stroke-width="1.2" opacity=".45"/><line x1="180" y1="300" x2="-200" y2="504" stroke="#ff2bd6" stroke-width="1.2" opacity=".45"/><line x1="180" y1="300" x2="-150" y2="504" stroke="#ff2bd6" stroke-width="1.2" opacity=".45"/><line x1="180" y1="300" x2="-100" y2="504" stroke="#ff2bd6" stroke-width="1.2" opacity=".45"/><line x1="180" y1="300" x2="-50" y2="504" stroke="#ff2bd6" stroke-width="1.2" opacity=".45"/><line x1="180" y1="300" x2="0" y2="504" stroke="#ff2bd6" stroke-width="1.2" opacity=".45"/><line x1="180" y1="300" x2="50" y2="504" stroke="#ff2bd6" stroke-width="1.2" opacity=".45"/><line x1="180" y1="300" x2="100" y2="504" stroke="#ff2bd6" stroke-width="1.2" opacity=".45"/><line x1="180" y1="300" x2="150" y2="504" stroke="#ff2bd6" stroke-width="1.2" opacity=".45"/><line x1="180" y1="300" x2="200" y2="504" stroke="#ff2bd6" stroke-width="1.2" opacity=".45"/><line x1="180" y1="300" x2="250" y2="504" stroke="#ff2bd6" stroke-width="1.2" opacity=".45"/><line x1="180" y1="300" x2="300" y2="504" stroke="#ff2bd6" stroke-width="1.2" opacity=".45"/><line x1="180" y1="300" x2="350" y2="504" stroke="#ff2bd6" stroke-width="1.2" opacity=".45"/><line x1="180" y1="300" x2="400" y2="504" stroke="#ff2bd6" stroke-width="1.2" opacity=".45"/><line x1="180" y1="300" x2="450" y2="504" stroke="#ff2bd6" stroke-width="1.2" opacity=".45"/><line x1="180" y1="300" x2="500" y2="504" stroke="#ff2bd6" stroke-width="1.2" opacity=".45"/><line x1="180" y1="300" x2="550" y2="504" stroke="#ff2bd6" stroke-width="1.2" opacity=".45"/><line x1="180" y1="300" x2="600" y2="504" stroke="#ff2bd6" stroke-width="1.2" opacity=".45"/><line x1="180" y1="300" x2="650" y2="504" stroke="#ff2bd6" stroke-width="1.2" opacity=".45"/><circle cx="180" cy="250" r="120" fill="#ff2bd6" opacity=".18"/></g>
<rect x="14" y="14" width="332" height="476" rx="16" fill="none" stroke="#00f0ff" stroke-width="3" opacity=".85"/>
<rect x="22" y="22" width="316" height="460" rx="11" fill="none" stroke="#00f0ff" stroke-width="1" opacity=".45"/>
<g transform="translate(180 252)"><circle r="62" fill="#0d0221" stroke="#00f0ff" stroke-width="5"/><circle r="50" fill="none" stroke="#00f0ff" stroke-width="2" opacity=".6"/><polygon points="-8,-40 24,-4 4,-4 12,40 -24,2 -4,2" fill="#ff2bd6" stroke="#00f0ff" stroke-width="3" stroke-linejoin="round"/></g></svg>